<svg id="Layer_1" data-name="Layer 1" xmlns="http://www.w3.org/2000/svg" viewBox="0 0 2500 2500"><defs><style>.cls-1{fill:#fff;}</style></defs><title>dribbble</title><path class="cls-1" d="M0,1250Q0,910,167.5,622.5t455-455Q910,0,1250,0t627.5,167.5Q2165,335,2332.5,622.5T2500,1250q0,340-167.5,627.5t-455,455Q1590,2500,1250,2500T622.5,2332.5Q335,2165,167.5,1877.5T0,1250Zm207.5,0q0,390,262.5,687.5,120-235,380-447.5t507.5-267.5Q1320,1135,1285,1065q-430,137.51-930,137.5-97.5,0-145-2.5,0,10-1.25,25T207.5,1250ZM240,992.5q55,5,162.5,5Q820,997.5,1195,885,1005,547.5,777.5,322.5,580,422.51,438.75,600T240,992.5Zm372.5,1080q282.5,220,637.5,220,185,0,367.5-70-50-427.5-195-827.5-230,50-463.75,252.5T612.5,2072.5ZM995,242.5Q1215,470,1402.5,810q340-142.5,512.5-362.5-290-240-665-240Q1122.5,207.5,995,242.5Zm497.5,745q37.5,80,85,202.5,185-17.51,402.5-17.5,155,0,307.5,7.5-20-340-245-605Q1880,817.5,1492.5,987.5ZM1640,1365a3588.37,3588.37,0,0,1,172.5,760Q2010,1997.5,2135,1797.5T2285,1365q-182.51-12.49-332.5-12.5Q1815,1352.5,1640,1365Z"/></svg>