<?xml version="1.0" encoding="utf-8"?>
<!-- Generator: Adobe Illustrator 24.0.1, SVG Export Plug-In . SVG Version: 6.00 Build 0)  -->
<svg version="1.1" id="Layer_1" xmlns="http://www.w3.org/2000/svg" xmlns:xlink="http://www.w3.org/1999/xlink" x="0px" y="0px"
	 viewBox="0 0 3365 3365" style="enable-background:new 0 0 3365 3365;" xml:space="preserve">
<style type="text/css">
	.st0{fill:#FFFFFF;}
	.st1{fill:#243540;}
</style>
<circle class="st0" cx="1682.5" cy="1682.5" r="1682.5"/>
<title>instagram</title>
<path class="st1" d="M1320.9,1682.5c0-199.8,161.9-361.8,361.7-361.8s361.8,162,361.8,361.8s-162,361.8-361.8,361.8
	S1320.9,1882.3,1320.9,1682.5 M1125.3,1682.5c0,307.8,249.5,557.3,557.3,557.3s557.3-249.5,557.3-557.3s-249.5-557.3-557.3-557.3
	S1125.3,1374.7,1125.3,1682.5 M2131.6,1103.1c0,71.9,58.3,130.2,130.2,130.3c71.9,0,130.2-58.3,130.3-130.2
	c0-71.9-58.2-130.2-130.2-130.3h-0.1C2190,973,2131.7,1031.3,2131.6,1103.1 M1244.1,2565.9c-105.8-4.8-163.3-22.4-201.5-37.3
	c-50.7-19.7-86.8-43.2-124.8-81.2c-38-38-61.6-74.1-81.2-124.8c-14.9-38.2-32.5-95.7-37.3-201.5c-5.3-114.4-6.3-148.8-6.3-438.6
	s1.1-324.1,6.3-438.6c4.8-105.8,22.6-163.2,37.3-201.5c19.7-50.7,43.2-86.8,81.2-124.8c38-38,74.1-61.5,124.8-81.2
	c38.2-14.9,95.7-32.5,201.5-37.3c114.4-5.3,148.8-6.3,438.4-6.3s324.1,1.1,438.6,6.3c105.8,4.8,163.2,22.6,201.5,37.3
	c50.7,19.6,86.8,43.2,124.8,81.2c38,38,61.5,74.2,81.2,124.8c14.9,38.2,32.5,95.7,37.3,201.5c5.3,114.5,6.3,148.8,6.3,438.6
	s-1.1,324.1-6.3,438.6c-4.8,105.8-22.6,163.3-37.3,201.5c-19.7,50.7-43.2,86.8-81.2,124.7c-38,37.9-74.2,61.5-124.8,81.2
	c-38.2,14.9-95.7,32.5-201.5,37.3c-114.4,5.3-148.8,6.3-438.6,6.3S1358.4,2571.1,1244.1,2565.9 M1235.1,603.8
	c-115.5,5.3-194.5,23.6-263.4,50.4c-71.3,27.7-131.9,64.9-192.2,125.2c-60.4,60.3-97.5,120.8-125.2,192.2
	c-26.8,69-45.1,147.9-50.4,263.4c-5.3,115.7-6.6,152.7-6.6,447.4s1.2,331.7,6.6,447.4c5.3,115.5,23.6,194.5,50.4,263.4
	c27.7,71.4,64.8,132,125.2,192.2c60.4,60.3,120.8,97.4,192.2,125.2c69.1,26.8,147.9,45.1,263.4,50.4c115.8,5.3,152.7,6.6,447.4,6.6
	s331.7-1.2,447.4-6.6c115.5-5.3,194.5-23.6,263.4-50.4c71.4-27.8,131.9-64.9,192.2-125.2c60.4-60.3,97.4-120.9,125.2-192.2
	c26.8-69,45.2-147.9,50.4-263.4c5.3-115.8,6.5-152.7,6.5-447.4s-1.2-331.7-6.5-447.4c-5.3-115.5-23.6-194.5-50.4-263.4
	c-27.8-71.4-64.9-131.9-125.2-192.2c-60.3-60.4-120.9-97.5-192.2-125.2c-69.1-26.8-148-45.2-263.4-50.4
	c-115.7-5.3-152.7-6.6-447.4-6.6S1350.9,598.5,1235.1,603.8"/>
</svg>
