<svg id="Layer_1" data-name="Layer 1" xmlns="http://www.w3.org/2000/svg" viewBox="0 0 2500 2500"><defs><style>.cls-1{fill:#fff;}</style></defs><title>linkedin</title><path class="cls-1" d="M1250,0C559.64,0,0,559.64,0,1250S559.64,2500,1250,2500s1250-559.64,1250-1250S1940.35,0,1250,0ZM916.5,1854.32H642.05V967.65H916.5ZM778,851.53c-89.63,0-162.29-73.25-162.29-163.6S688.34,524.32,778,524.32s162.29,73.25,162.29,163.61S867.59,851.53,778,851.53ZM1945,1854.32H1671.88V1388.89c0-127.65-48.49-198.91-149.43-198.91-109.86,0-167.25,74.21-167.25,198.91v465.43H1092V967.65H1355.2v119.42s79.18-146.47,267.19-146.47S1945,1055.4,1945,1292.89v561.43Z" transform="translate(0 0)"/></svg>