<svg id="Layer_1" data-name="Layer 1" xmlns="http://www.w3.org/2000/svg" viewBox="0 0 2500 2500"><defs><style>.cls-1{fill:#fff;}</style></defs><title>twitter</title><path class="cls-1" d="M1250,0C559.64,0,0,559.64,0,1250S559.64,2500,1250,2500s1250-559.64,1250-1250S1940.36,0,1250,0Zm637.19,923.22q1,21.16,1,42.54c0,434.53-330.78,935.6-935.6,935.6a930.59,930.59,0,0,1-504.07-147.81,662.25,662.25,0,0,0,486.85-136.13c-143.85-2.68-265.29-97.75-307.14-228.35a333.1,333.1,0,0,0,61.9,5.79,327.15,327.15,0,0,0,86.64-11.52C626.33,1353.12,513,1220.26,513,1060.92v-4.15a327.43,327.43,0,0,0,149,41.11,329.17,329.17,0,0,1-101.75-439C722.4,857.79,964.69,988.71,1238,1002.44a332.8,332.8,0,0,1-8.47-75c0-181.65,147.24-328.83,328.79-328.83a328.38,328.38,0,0,1,240,103.8,656.91,656.91,0,0,0,208.86-79.8,329.79,329.79,0,0,1-144.59,181.92,656.68,656.68,0,0,0,188.87-51.8h0A669.8,669.8,0,0,1,1887.19,923.22Z" transform="translate(0 0)"/></svg>