<svg id="Layer_1" data-name="Layer 1" xmlns="http://www.w3.org/2000/svg" viewBox="0 0 1234.53 1234.53"><defs><style>.cls-1{fill:#fff;opacity:0.82;}</style></defs><title>vimeo</title><path class="cls-1" d="M617.27,0C276.36,0,0,276.36,0,617.27s276.36,617.26,617.27,617.26,617.26-276.36,617.26-617.26S958.17,0,617.27,0ZM870,819q-184,238.58-311.39,238.61-78.84,0-133.45-145.59L352.34,645.12q-40.5-145.67-87-145.62-10.12,0-70.79,42.45l-42.45-54.58q66.17-58.15,131.43-117.28,89-76.84,133.46-80.86,105.15-10.14,129.41,143.56Q572.71,598.59,582.83,639q30.33,137.47,66.71,137.5,28.32,0,84.94-89t60.65-135.48q8.05-76.84-60.65-76.86-32.33,0-66.71,14.15Q734.48,273,922.55,279.08q139.48,4.07,131.4,180Q1047.89,590.48,870,819Z"/></svg>